#!OML:ASF E:/inclinewalkrobotboard/Project1/Captureday1/Session1/subject1.ASF
:FULLY-SPECIFIED
:DEGREES
38
root 0 0 0 1.3138921465289206 -3.8536595256236383 1.832651725737589
lowerback 12.169264309430007 0.8576628839706891 -0.05989406367423522
upperback -4.3861589946476975 1.09497582611194 -0.5683984342692142
thorax -11.618940039135385 0.4975100543023806 -0.8203019203867277
lowerneck -6.010459519455276 1.5942602330687536 4.463852726466365
upperneck 18.38873184226799 3.0995363087739563 -8.197305214570719
head 6.743737396716871 1.1345127264341688 -3.143228792153212
rclavicle 1.9322630606881634E-15 -4.032747055474185E-16
rhumerus 21.253152606708028 15.771655447057315 -47.63770407776345
rradius 73.64692205893897
rwrist 26.822778554889183
rhand -34.66062681932738 -57.66374082779928
rfingers 7.125020000000014
rthumb -7.80151467828585 -87.6078982550147
lclavicle -4.37622828208835E-16 -1.0202359389325857E-15
lhumerus 22.12455047029011 -12.529296844943259 43.86398760111815
lradius 71.11785819550337
lwrist -23.560729489141124
lhand -44.621629066665605 -71.13318979063699
lfingers 7.125020000000031
lthumb -17.40113475878663 -41.83515673809292
rfemur -25.231158181110196 -2.21810097850926 17.200891016012683
rtibia 54.19627722292504
rfoot -29.698850832865727 -16.76717532196298
rtoes -18.43312621595899
lfemur -26.48881816440451 2.290787718981884 -17.627581503420856
ltibia 53.32988935484882
lfoot -32.60035648439904 -2.6134748096029647
ltoes -21.018517821484238
39
root 0 0 0 1.3138394246644713 -3.8534456711926257 1.832608308705987
lowerback 12.169246732105105 0.857641581869695 -0.05987932065746937
upperback -4.3861891227185525 1.0949501090918752 -0.5683938922568473
thorax -11.618966630198116 0.49749629614995505 -0.8203039065368705
lowerneck -6.010520240446093 1.5942990257357799 4.463896476899703
upperneck 18.388837534595588 3.09958371453192 -8.197340869446762
head 6.743778761253314 1.134531576497444 -3.143243112971337
rclavicle 1.932108211612349E-15 -4.0314512695949986E-16
rhumerus 21.25317733458381 15.77162239881683 -47.637615092200384
rradius 73.64695849772686
rwrist 26.822832568413503
rhand -34.66074561131051 -57.663928941400016
rfingers 7.125020000000014
rthumb -7.801629207124682 -87.60808839677222
lclavicle -4.372660057122646E-16 -1.0195761145341557E-15
lhumerus 22.12460625715743 -12.529346822133087 43.86398702844501
lradius 71.117915402217
lwrist -23.56070552279879
lhand -44.62165395254647 -71.13327789836177
lfingers 7.125020000000031
lthumb -17.401163048002644 -41.835266030088945
rfemur -25.23111660213914 -2.2180285499016312 17.200907077665146
rtibia 54.19605760546599
rfoot -29.69890169868715 -16.767221708342355
rtoes -18.43312285063436
lfemur -26.488416096385123 2.2908342074009274 -17.627328637870182
ltibia 53.33003810228358
lfoot -32.59968714342226 -2.614063869656941
ltoes -21.019928629442056
40
root 0 0 0 1.313809675160829 -3.853392484722309 1.8325937513390307
lowerback 12.169239738027484 0.8576363365898485 -0.05987376170447822
upperback -4.38619683455714 1.094943784900529 -0.568390118431039
thorax -11.618972339714336 0.4974928468542812 -0.8203023825281619
lowerneck -6.010524464054785 1.594311552589698 4.463914268596319
upperneck 18.38886317854755 3.0996005522797825 -8.197362695949817
head 6.743786663005496 1.1345379191306129 -3.143251217665706
rclavicle 1.9321220214113877E-15 -4.0305882083054165E-16
rhumerus 21.253156670387284 15.771584716276267 -47.637578765199265
rradius 73.64694849298324
rwrist 26.82287516512786
rhand -34.660756822735124 -57.66396889222895
rfingers 7.125020000000014
rthumb -7.801639878718182 -87.60813013991424
lclavicle -4.3730590735129124E-16 -1.0194964018570791E-15
lhumerus 22.12463331662621 -12.529362056608111 43.863976325547625
lradius 71.11794446048918
lwrist -23.560711139340846
lhand -44.621665352910455 -71.13334239271079
lfingers 7.125020000000031
lthumb -17.401173758862548 -41.835328749093165
rfemur -25.23107636781304 -2.2180378111459538 17.200942440883587
rtibia 54.196060985601555
rfoot -29.69887196072093 -16.767216925076276
rtoes -18.433064833073416
lfemur -26.488350238844202 2.290874641362454 -17.627295222181864
ltibia 53.330224053431856
lfoot -32.59935448175236 -2.6143659838943125
ltoes -21.02022594484974
41
root 0 0 0 1.3136407663273095 -3.8557643450245216 1.8329304680482643
lowerback 12.16908919671524 0.8579238432813097 -0.06019828732877819
upperback -4.385621817215522 1.0952651284162012 -0.5682620499742003
thorax -11.618206223497712 0.49768620380184614 -0.8200319963120766
lowerneck -6.009073409296025 1.593619833523389 4.463361665219359
upperneck 18.387263945316384 3.098792560303048 -8.197020897095738
head 6.743085621386366 1.134183291971381 -3.1431506008455656
rclavicle 1.91946075185186E-15 -3.9719654944980487E-16
rhumerus 21.25252341524166 15.771345533943387 -47.63865911730842
rradius 73.64592387197123
rwrist 26.822184318141225
rhand -34.65998506688291 -57.662201541460476
rfingers 7.125020000000014
rthumb -7.800617770894348 -87.60619394161006
lclavicle -4.429355964404147E-16 -1.0185757150656424E-15
lhumerus 22.126271046250828 -12.527883171230831 43.863684909622634
lradius 71.11879718971815
lwrist -23.560901808844008
lhand -44.6218141244769 -71.13558618580652
lfingers 7.125020000000031
lthumb -17.40131631968704 -41.838575606075224
rfemur -25.23204822599444 -2.2171651882083196 17.201739025369477
rtibia 54.19393425369498
rfoot -29.696169459777032 -16.768494071445947
rtoes -18.43057507365252
lfemur -26.495082372262182 2.2917976292531703 -17.63134703009035
ltibia 53.3299114335008
lfoot -32.599907008200915 -2.612505281642319
ltoes -21.006925301828772
